<?xml version="1.0" encoding="UTF-8" standalone="no"?>
<!-- Uploaded to: SVG Repo, www.svgrepo.com, Generator: SVG Repo Mixer Tools -->

<svg
   fill="#000000"
   width="800px"
   height="800px"
   viewBox="0 0 512 512"
   enable-background="new 0 0 512 512"
   id="deer"
   version="1.1"
   xml:space="preserve"
   sodipodi:docname="deer.svg"
   inkscape:version="1.1.2 (0a00cf5339, 2022-02-04)"
   xmlns:inkscape="http://www.inkscape.org/namespaces/inkscape"
   xmlns:sodipodi="http://sodipodi.sourceforge.net/DTD/sodipodi-0.dtd"
   xmlns="http://www.w3.org/2000/svg"
   xmlns:svg="http://www.w3.org/2000/svg"><defs
     id="defs119" /><sodipodi:namedview
     id="namedview117"
     pagecolor="#ffffff"
     bordercolor="#666666"
     borderopacity="1.0"
     inkscape:pageshadow="2"
     inkscape:pageopacity="0.0"
     inkscape:pagecheckerboard="0"
     showgrid="false"
     inkscape:zoom="0.99"
     inkscape:cx="399.49495"
     inkscape:cy="400"
     inkscape:window-width="1920"
     inkscape:window-height="1007"
     inkscape:window-x="0"
     inkscape:window-y="0"
     inkscape:window-maximized="1"
     inkscape:current-layer="deer" /><path
     d="m 382.99109,108.17301 c 0.0356,0.0363 0.0734,0.0696 0.11001,0.10704 1.18203,1.21008 2.25405,2.49612 3.21714,3.84207 2.22922,-1.36093 4.58032,-2.60524 7.00908,-3.688 17.79827,-7.95483 38.75114,1.86059 39.63333,2.28321 l 5.30507,2.53355 -1.59939,5.62133 c -0.26637,0.93619 -6.72544,23.01283 -24.52156,30.96766 -7.35205,3.28999 -15.06756,5.06284 -21.93536,5.06284 -0.26315,0 -0.51983,-0.0118 -0.78083,-0.0182 l -2.29501,19.21033 c -0.15962,3.90305 -0.99977,7.95376 -2.42445,11.89532 v 87.42926 c 0,8.32286 -0.98466,15.58973 -3.0025,22.19539 -2.53122,8.38386 -6.74163,15.69139 -12.79087,22.30241 l -23.42367,79.40916 5.63402,100.76467 h 4.21256 c 3.83835,0 7.18597,2.93478 7.3003,6.74155 0.1197,3.93836 -3.0629,7.16736 -7.00695,7.16736 h -40.36238 l -11.49129,-102.0892 v -11.19453 l -44.90605,99.37486 h 4.22227 c 3.83943,0 7.18597,2.93478 7.30136,6.74155 C 270.51563,508.771 267.33302,512 263.39008,512 h -52.21281 l 33.79224,-76.16517 0.33109,-0.67405 c 9.23186,-16.74953 2.83347,-36.86716 3.14083,-43.85907 -5.32665,-6.40237 -11.52364,-16.01664 -14.9748,-28.75611 -10.58967,2.83525 -37.28402,6.09637 -62.09569,6.09637 -8.35289,0 -49,-0.7575 -57.16737,-2.22542 -3.42528,13.19421 -9.7107,23.29954 -18.712841,30.05928 -7.394108,5.55714 -11.736105,13.72059 -12.004641,22.50997 l 21.438172,79.10529 h 6.67584 c 3.83941,0 7.18595,2.93478 7.30136,6.74155 C 119.02009,508.771 115.83747,512 111.89452,512 H 74.173347 L 56.568121,452.10397 v 45.98391 h 3.811367 c 3.838339,0 7.184883,2.9337 7.301361,6.74047 0.118635,3.93942 -3.063976,7.16843 -7.006927,7.16843 H 20.809794 v -68.79452 l -6.534556,-54.5197 c -1.551948,-10.6799 2.882796,-15.40466 5.669603,-17.27379 6.903399,-4.62846 10.363188,-12.61431 10.561633,-24.38874 l -8.210529,-24.87126 -2.217373,-11.65141 c -1.483992,-7.79967 -1.60587,-15.66568 -0.460516,-23.30489 v -35.90215 c 0,-19.91755 9.666487,-39.05835 26.522163,-52.51574 3.199876,-2.55388 7.691775,-3.05247 11.43844,-1.27107 3.543915,1.68404 5.745107,5.07462 5.745107,8.8482 v 26.16801 c 8.176009,-3.21937 16.986175,-4.93338 26.035759,-4.93338 h 22.239485 c 3.83834,0 7.18597,2.93478 7.30136,6.74049 0.11864,3.93835 -3.06397,7.16841 -7.00692,7.16841 H 90.189958 c -16.215055,0 -31.882236,6.52649 -42.743682,18.46996 -11.905431,13.09365 -16.866468,30.73012 -13.590026,47.9515 l 2.04589,10.76229 8.633293,26.1466 v 1.11058 c 0,16.90786 -5.505679,29.26647 -16.370356,36.74304 -0.157462,0.50607 -0.341882,1.8071 -0.0052,4.0796 l 6.619756,55.20979 0.04958,0.40871 v 55.70946 h 7.717651 V 410.7966 c 0,-2.14304 0.156387,-4.27325 0.463759,-6.34245 l 0.08412,-0.55637 c 1.798923,-11.3764 7.936591,-21.62406 17.287074,-28.85776 6.50652,-5.02432 11.659526,-14.49737 14.899302,-27.39305 l 0.09275,-0.3488 c 1.073093,-4.33104 1.920781,-9.02155 2.523661,-13.95919 0.320312,-2.57743 0.560812,-5.21691 0.716114,-7.87352 0.190886,-3.03107 1.876566,-5.76149 4.512387,-7.30539 2.631514,-1.5396 5.856192,-1.68618 8.63006,-0.3841 12.148079,5.72406 57.351769,8.62673 70.575099,8.62673 21.74016,0 50.0393,-3.16052 64.36379,-9.67203 2.71992,-1.22399 5.44311,-2.59026 8.11021,-4.06889 3.34116,-1.8424 7.40704,-1.47006 10.35779,0.95007 2.94103,2.41375 4.06806,6.29325 2.87741,9.87961 -2.03943,6.15203 -4.15541,15.89254 -2.65739,27.4059 0.0755,0.61199 0.17148,1.22613 0.26423,1.7996 l 0.0291,0.19366 c 2.49993,15.10828 10.21111,25.74431 14.58331,30.7376 1.45596,1.66266 2.25835,3.79929 2.25835,6.01614 l -0.002,0.14016 c -0.13912,6.90418 6.60222,30.98905 -4.78876,51.81709 l -25.06188,56.48943 h 10.83969 l 61.77684,-136.70529 c 1.26507,-5.0361 3.34546,-9.90422 6.13875,-14.41071 l 18.083,-42.52382 c 1.7946,-4.21867 4.55661,-7.94946 7.99375,-11.0062 5.93276,-5.27683 9.33215,-12.82404 9.33215,-20.73284 v -12.86254 c 0,-3.80783 2.9583,-7.12777 6.79447,-7.24331 3.96992,-0.11663 7.22586,3.04068 7.22586,6.9523 v 12.00125 c 0,12.26552 -4.88122,24.24001 -14.13896,32.37029 -1.84637,1.62201 -3.33038,3.67197 -4.29023,5.92735 l -6.58308,15.48168 c 9.69884,-5.41163 16.65508,-10.44239 21.7423,-15.72028 5.14871,-5.32711 8.64623,-11.21379 10.69967,-18.01417 1.61883,-5.29929 2.40612,-11.24696 2.40612,-18.18322 v -67.84337 c -5.15949,3.90198 -10.97578,6.03861 -16.84598,6.03861 h -8.72929 c -9.89188,0 -18.59204,-5.74439 -24.62078,-13.82974 l -4.7777,12.53192 c -7.15467,18.7642 -25.26788,31.17844 -45.48844,31.17844 h -86.2957 c -3.83833,0 -7.18488,-2.93479 -7.30137,-6.74048 -0.11863,-3.93837 3.06399,-7.16844 7.00694,-7.16844 h 86.59004 c 14.30397,0 27.31486,-8.91775 32.37512,-22.19113 l 7.17949,-18.82945 c 1.52929,-4.01219 2.19795,-8.29397 2.03726,-12.58114 l -0.002,-0.0631 -2.18717,-19.03594 c -0.24913,0.005 -0.49502,0.0171 -0.74631,0.0171 -6.86673,0 -14.58331,-1.77285 -21.9332,-5.06177 -17.79505,-7.95483 -24.26597,-30.02934 -24.53451,-30.96443 l -1.60263,-5.62563 5.31046,-2.53357 c 0.88221,-0.42261 21.84477,-10.2348 39.64305,-2.28212 2.46003,1.10094 4.83054,2.35809 7.06626,3.72759 0.93612,-1.31493 1.97794,-2.56887 3.12328,-3.75328 C 259.03958,94.298407 203.48511,67.312753 199.92843,7.331127 199.6921,3.34997 207.60307,0.002202 207.60307,0.002202 v 0 c 0,0 7.44541,2.843837 7.65927,6.505089 2.33016,39.713128 22.48219,51.685722 54.10453,72.247367 0,0 -11.13716,-7.639436 -11.13716,-25.76381 V 37.380722 c 0,-3.842223 3.43851,-6.952314 7.67818,-6.952314 h 0.005 c 4.23968,0 7.67701,3.110792 7.67701,6.952314 v 15.606863 c 0,25.140885 20.36159,24.408229 40.81295,36.254332 -1.73422,-4.264678 -2.69838,-8.916673 -2.69838,-13.790141 V 52.377969 c 0,-3.838858 3.13731,-6.952313 7.00801,-6.952313 h 0.005 c 3.86961,0 7.008,3.112384 7.008,6.952313 v 22.508892 c 0,12.494486 9.77433,23.149776 22.36028,23.621606 13.23089,0.49645 24.15381,-10.03795 24.15381,-23.055621 V 52.377969 c 0,-3.838858 3.13732,-6.952313 7.008,-6.952313 h 0.005 c 3.86963,0 7.00802,3.112384 7.00802,6.952313 v 23.074877 c 0,4.873467 -0.96417,9.525468 -2.69838,13.790151 20.4517,-11.846114 40.81177,-11.104094 40.81177,-36.254341 V 37.380722 c 0,-3.839927 3.43734,-6.952314 7.67818,-6.952314 h 0.005 c 4.23967,0 7.67818,3.112387 7.67818,6.952314 v 15.606863 c 0,18.135213 -14.33647,25.764881 -14.33647,25.764881 C 457.02366,58.190822 480.37522,46.218228 482.70537,6.505089 482.92043,2.844906 490.36466,0 490.36466,0 v 0 c 0,0 7.91096,3.345626 7.67581,7.326784 -3.53542,59.641393 -58.62151,86.410933 -115.05122,100.846226 z m 23.39131,28.98724 c 7.23127,-3.23221 11.89033,-10.74088 14.42478,-16.1001 -5.73217,-1.66908 -14.49056,-3.17658 -21.72614,0.0579 -2.60454,1.16084 -5.07535,2.5421 -7.31106,4.06888 0.35806,2.09704 0.50689,4.24649 0.43895,6.42591 l -1.11947,9.37033 c 4.69034,-0.14124 10.03641,-1.47115 15.29294,-3.82282 z M 33.639478,254.7194 c 0.476686,-0.60986 0.942593,-1.22827 1.441935,-1.82635 4.178062,-4.99972 8.970859,-9.33501 14.223088,-12.93741 V 214.68743 C 39.270256,224.92544 33.639478,237.92921 33.639478,251.2914 Z m 53.043243,103.84175 c -4.114424,12.32758 -10.041794,21.55239 -17.682877,27.45299 -6.129047,4.74186 -10.268284,11.30685 -11.782479,18.6101 L 84.68968,498.0921 h 5.717061 l -20.95393,-77.31854 v -0.91693 c 0,-13.51197 6.404058,-26.07277 17.575023,-34.46732 6.349062,-4.76756 10.885176,-12.21203 13.514536,-22.13871 -5.191846,-1.48077 -9.792673,-3.09634 -13.859649,-4.68945 z m 75.650489,-18.24847 c -13.05078,0 -58.12615,-2.43407 -70.289331,-7.24334 -0.07012,0.65586 -0.147745,1.30959 -0.227554,1.95795 -0.418458,3.4248 -0.958773,6.74369 -1.591847,9.95342 4.368948,1.76216 9.376369,3.58422 15.168922,5.18589 10.90998,3.03107 54.56714,4.56854 65.97645,4.56854 24.06969,0 49.89046,-3.26645 59.71656,-5.96479 -0.4864,-6.37135 -0.15961,-12.84111 0.98143,-19.18145 -16.08133,7.21445 -46.15459,10.72378 -69.73463,10.72378 z m 177.83223,-1.45081 -3.85775,2.43191 c -3.44361,2.16766 -6.52378,4.7943 -9.15312,7.80505 -0.79701,0.9137 -1.53362,1.86807 -2.23787,2.84168 l -6.31023,13.96348 c -0.52847,2.39446 -0.80779,4.69159 -0.80779,6.825 v 36.40816 l 10.01267,88.95388 h 9.27176 l -5.72353,-102.37919 18.40871,-62.40711 c -2.94212,1.83597 -6.12689,3.68051 -9.60285,5.55714 z M 307.39992,125.2478 c -2.24218,-1.54173 -4.74103,-2.94333 -7.39628,-4.13201 -7.22695,-3.23222 -15.98318,-1.72576 -21.71427,-0.0598 2.54956,5.36776 7.22587,12.88926 14.42153,16.10545 5.26411,2.35487 10.62743,3.68585 15.31993,3.82279 l -1.02565,-8.92951 -0.0431,-0.60879 c -0.0549,-2.1013 0.0971,-4.17374 0.43788,-6.19802 z m 37.71254,72.45898 h 8.72927 c 4.48867,0 9.24372,-2.92194 13.11549,-8.02649 -1.78597,-7.91096 -8.90832,-13.84366 -17.41326,-13.84366 -8.5524,0 -15.7114,5.99902 -17.44668,13.97631 3.52771,4.61136 8.18248,7.89384 13.01518,7.89384 z m 27.92203,-79.74511 c -3.48242,-3.56389 -8.15659,-5.52717 -13.1597,-5.52717 h -20.57431 c -4.98584,0 -9.64707,1.95045 -13.12626,5.49293 -3.41342,3.47509 -5.2544,8.03829 -5.20155,12.87966 l 4.7928,41.71388 c 5.84216,-6.49439 14.33525,-10.59431 23.77957,-10.59431 9.39794,0 17.85651,4.05821 23.69544,10.49802 l 4.96213,-41.52344 c 0.0776,-4.85849 -1.75147,-9.44308 -5.16812,-12.93957 z"
     id="path114"
     style="stroke-width:1.07419"
     sodipodi:nodetypes="scccccscscccsccccscsccccscscccccsccccscscccscsccccccccsccscsscssccccsccccccscccccccccscccccccscccccccccsscsscccccscssccsscsscccccsccccccccssccsssssscsssssscsssssscssssssccssccscccccssccccsccsccccscccsccccsccscscccsccccccsscccccsssscscsssscccsccss" /></svg>
