<?xml version="1.0" encoding="UTF-8" standalone="no"?>
<!-- Uploaded to: SVG Repo, www.svgrepo.com, Generator: SVG Repo Mixer Tools -->

<svg
   fill="#000000"
   width="800px"
   height="800px"
   viewBox="0 0 512 512"
   enable-background="new 0 0 512 512"
   id="fox"
   version="1.1"
   xml:space="preserve"
   sodipodi:docname="fox.svg"
   inkscape:version="1.1.2 (0a00cf5339, 2022-02-04)"
   xmlns:inkscape="http://www.inkscape.org/namespaces/inkscape"
   xmlns:sodipodi="http://sodipodi.sourceforge.net/DTD/sodipodi-0.dtd"
   xmlns="http://www.w3.org/2000/svg"
   xmlns:svg="http://www.w3.org/2000/svg"><defs
   id="defs2483" /><sodipodi:namedview
   id="namedview2481"
   pagecolor="#ffffff"
   bordercolor="#666666"
   borderopacity="1.0"
   inkscape:pageshadow="2"
   inkscape:pageopacity="0.0"
   inkscape:pagecheckerboard="0"
   showgrid="false"
   inkscape:zoom="0.99"
   inkscape:cx="208.58586"
   inkscape:cy="400"
   inkscape:window-width="1920"
   inkscape:window-height="1007"
   inkscape:window-x="0"
   inkscape:window-y="0"
   inkscape:window-maximized="1"
   inkscape:current-layer="fox" />

<g
   id="g2478"
   transform="matrix(-1.0902571,0,0,1.0902571,535.10255,4.7055519)">

<path
   d="m 67.762,234.881 h -0.005 c -3.588,0 -6.497,2.909 -6.497,6.498 v 11.791 c 0,18.97 12.207,35.377 30.377,40.828 l 9.792,2.938 c 3.438,1.032 7.061,-0.918 8.092,-4.355 l 0.001,-0.005 c 1.031,-3.437 -0.919,-7.06 -4.356,-8.091 l -9.793,-2.938 C 82.842,277.786 74.261,266.252 74.261,253.169 v -11.79 c -10e-4,-3.589 -2.91,-6.498 -6.499,-6.498 z"
   id="path2474" />

<path
   d="m 90.758,329.367 0.331,0.091 14.734,50.351 -5.201,72.488 h -8.19 c -3.59,0 -6.5,2.91 -6.5,6.5 0,3.59 2.91,6.5 6.5,6.5 h 72.337 l 18.006,-92.181 -8.467,-58.438 c -0.874,-6.027 -5.162,-11 -10.995,-12.75 l -30.109,-9.033 c -3.438,-1.031 -7.06,0.919 -8.091,4.356 l -0.002,0.005 c -1.03,3.437 0.92,7.059 4.357,8.09 l 30.109,9.033 c 0.985,0.296 1.717,1.145 1.865,2.163 l 8.149,56.25 -15.529,79.504 H 140.447 L 150.768,372.635 140.876,329.527 94.233,316.84 C 58.879,306.83 34.189,274.178 34.189,237.436 v -37.765 c 2.331,2.304 4.92,4.37 7.764,6.108 L 60.1,216.867 c 6.977,4.263 14.799,6.394 22.621,6.394 7.822,0 15.644,-2.131 22.62,-6.394 l 18.147,-11.088 v 0 c 7.623,-4.658 13.508,-11.578 17.039,-19.575 17.165,23.763 45.067,38.431 74.96,38.431 h 80.953 c 34.402,0 60.109,35.493 60.109,67.229 0,15.422 -5.835,30.087 -16.431,41.294 l -3.381,3.577 -0.368,0.62 c -8.57,14.417 -6.625,32.844 4.965,44.967 3.155,3.301 4.232,8.055 2.81,12.39 l -18.887,57.585 h -14.218 l 17.887,-58.323 -5.664,-2.174 c -26.597,-10.209 -48.092,-27.322 -63.886,-50.862 -7.503,-11.183 -11.869,-21.249 -14.076,-27.181 -1.164,-3.129 -4.496,-4.873 -7.729,-4.033 l -0.014,0.004 c -3.712,0.965 -5.801,4.924 -4.468,8.52 1.005,2.709 2.386,6.119 4.219,10.03 h -41.254 c -3.588,0 -6.497,2.909 -6.497,6.497 v 0.006 c 0,3.588 2.909,6.497 6.497,6.497 h 18.234 c 10.547,16.263 22.952,29.72 36.917,40.034 10.894,8.047 22.554,13.985 34.868,17.828 l -17.027,53.157 h -9.662 c -3.589,0 -6.499,2.91 -6.499,6.5 0,3.59 2.91,6.5 6.499,6.5 h 75.29 l 21.821,-66.532 c 2.904,-8.855 0.729,-18.563 -5.676,-25.332 -7.356,-7.771 -8.801,-19.541 -3.615,-28.848 l 2.36,-2.496 c 2.563,-2.713 4.888,-5.597 6.983,-8.615 v 28.996 c 0,52.793 39.992,96.412 91.271,102.174 l 0.409,0.099 h 0.449 c 3.518,0.365 7.086,0.555 10.697,0.555 h 24.73 c 3.701,0 6.701,-3 6.701,-6.7 0,-3.396 -2.541,-6.248 -5.912,-6.648 -24.753,-2.932 -44.014,-24.048 -44.014,-49.577 V 334.37 c 0,-63.024 -47.754,-115.097 -108.977,-121.957 l -0.354,-0.174 h -1.251 c -3.999,-0.395 -8.052,-0.601 -12.151,-0.601 h -21.709 -80.953 c -30.162,0 -57.962,-17.38 -71.235,-44.387 V 130.62 c 0,-0.144 -0.01,-0.286 -0.011,-0.43 h 0.011 V 59.238 c 0,-3.38 -1.239,-6.701 -3.66,-9.06 -4.059,-3.953 -10.133,-4.525 -14.772,-1.752 -7.505,4.482 -13.947,10.242 -19.148,17.121 -4.873,6.443 -8.557,13.862 -10.847,21.688 H 69.619 C 67.329,79.41 63.645,71.991 58.772,65.547 53.642,58.764 47.306,53.069 39.936,48.614 37.266,47.001 34.086,46.311 31.029,46.926 25.132,48.113 21.19,53.238 21.19,58.89 v 71.299 h 0.011 c -0.002,0.144 -0.011,0.286 -0.011,0.43 v 38.14 c 0,0.775 0.034,1.546 0.076,2.316 H 21.19 v 66.361 c 0,42.532 28.581,80.327 69.568,91.931 z m 39.19,10.66 7.629,33.247 -10.238,79.022 h -13.683 l 5.301,-73.893 -13.151,-44.944 z m 100.1,1.25 h 14.172 c 1.247,2.093 2.593,4.243 4.054,6.438 7.366,11.067 18.54,24.57 34.622,36.584 -23.483,-9.253 -40.718,-26.267 -52.848,-43.022 z m 52.652,111.02 16.015,-49.995 c 4.435,0.841 8.942,1.428 13.524,1.753 l -14.795,48.242 z m 108.511,-130.28 c 0.178,3.434 3.044,6.109 6.481,6.109 3.738,0 6.692,-3.146 6.494,-6.879 -1.166,-21.963 -7.904,-43.191 -19.664,-61.777 -5.752,-9.089 -12.594,-17.367 -20.323,-24.69 37.567,17.44 63.685,55.519 63.685,99.589 v 68.003 c 0,20.148 9.518,38.114 24.295,49.64 -0.76,-0.061 -1.51,-0.155 -2.266,-0.234 l -0.178,-0.043 h -0.234 c -0.075,-0.009 -0.151,-0.016 -0.227,-0.023 -25.642,-3.815 -44.906,-26.141 -44.906,-52.172 v -47.119 c 0,-3.588 -2.908,-6.497 -6.497,-6.497 h -0.005 c -3.588,0 -6.498,2.909 -6.498,6.497 v 47.119 c 0,10.037 2.307,19.629 6.429,28.237 -17.371,-16.39 -28.245,-39.595 -28.245,-65.306 v -70.605 c 0,-17.916 -6.502,-36.25 -17.946,-51.05 23.522,20.324 37.961,49.373 39.605,81.201 z M 117.041,73.389 c 3.901,-5.159 8.678,-9.542 14.213,-13.044 v 39.346 c -5.942,-5.839 -13.553,-9.982 -22.043,-11.643 1.857,-5.269 4.496,-10.251 7.83,-14.659 z M 34.19,60.345 c 5.535,3.502 10.312,7.885 14.214,13.044 3.334,4.409 5.973,9.391 7.829,14.659 -8.49,1.661 -16.101,5.804 -22.043,11.643 z m 0,70.275 c 0,-16.754 13.63,-30.385 30.385,-30.385 h 36.294 c 16.755,0 30.385,13.63 30.385,30.385 v 14.266 l -8.417,-0.019 c -16.742,0 -30.539,12.852 -32.045,29.208 l -8.2,7.562 -7.804,-6.742 v -1.509 c 0,-10.774 -4.949,-28.85 -38.099,-28.85 H 34.19 Z m 0,26.916 h 2.499 c 25.099,0 25.099,11.107 25.099,15.85 v 7.458 l 12.305,10.63 c 2.443,2.111 5.469,3.162 8.491,3.162 3.159,0 6.315,-1.149 8.8,-3.436 l 12.272,-11.301 v -2.851 c 0,-10.576 8.604,-19.181 19.181,-19.181 l 8.417,0.019 v 10.874 c 0,10.512 -5.572,20.447 -14.542,25.927 l -18.147,11.089 c -9.771,5.972 -21.912,5.971 -31.685,0 L 48.733,194.687 c -8.97,-5.48 -14.542,-15.415 -14.542,-25.927 v -11.224 z"
   id="path2476" />

</g>

</svg>
