<?xml version="1.0" encoding="UTF-8" standalone="no"?>
<!-- Uploaded to: SVG Repo, www.svgrepo.com, Generator: SVG Repo Mixer Tools -->

<svg
   fill="#000000"
   height="800px"
   width="800px"
   version="1.1"
   id="Capa_1"
   viewBox="0 0 461.436 461.436"
   xml:space="preserve"
   sodipodi:docname="bush.svg"
   inkscape:version="1.1.2 (0a00cf5339, 2022-02-04)"
   xmlns:inkscape="http://www.inkscape.org/namespaces/inkscape"
   xmlns:sodipodi="http://sodipodi.sourceforge.net/DTD/sodipodi-0.dtd"
   xmlns="http://www.w3.org/2000/svg"
   xmlns:svg="http://www.w3.org/2000/svg"><defs
   id="defs195" /><sodipodi:namedview
   id="namedview193"
   pagecolor="#ffffff"
   bordercolor="#666666"
   borderopacity="1.0"
   inkscape:pageshadow="2"
   inkscape:pageopacity="0.0"
   inkscape:pagecheckerboard="0"
   showgrid="false"
   inkscape:zoom="0.99"
   inkscape:cx="399.49495"
   inkscape:cy="400"
   inkscape:window-width="1920"
   inkscape:window-height="1007"
   inkscape:window-x="0"
   inkscape:window-y="0"
   inkscape:window-maximized="1"
   inkscape:current-layer="g190" />
<g
   id="g190">
	<path
   d="m 460.403,346.61923 c -3.187,-16.74438 -13.36,-28.921 -29.068,-35.13869 14.28,-52.99267 13.186,-96.59259 -3.423,-113.37807 -3.456,-3.49316 -8.516,-6.72454 -15.419,-6.7702 7.685,-41.47967 4.443,-73.36263 -9.367,-87.31857 -10.055,-10.159866 -23.911,-8.709326 -39.428,3.58145 C 365.731,70.485371 359.5,43.698322 345.917,33.67696 332.612,23.859558 315.242,32.574976 297.652,57.039335 293.813,26.75455 284.821,7.2369444 271.886,2.1440715 258.688,-3.0568688 244.055,8.2049859 230.718,33.304051 217.384,8.206508 202.753,-3.0553467 189.55,2.1440715 176.614,7.2384664 167.622,26.75455 163.784,57.039335 146.194,32.576498 128.825,23.862602 115.519,33.678482 101.936,43.698322 95.704,70.485371 97.737,107.59515 82.22,95.302852 68.364,93.85079 58.311,104.0137 c -13.812,13.95594 -17.052,45.84347 -9.368,87.31857 -6.902,0.0457 -11.963,3.27704 -15.418,6.7702 -16.61,16.78548 -17.705,60.3854 -3.424,113.37959 -15.708,6.21769 -25.881,18.39279 -29.069,35.13717 -4.84,25.42479 7.477,54.4706 33.792,79.69144 23.07,22.11122 50.084965,33.79926 78.448,33.79926 h 234.89 c 28.252,0 55.379,-11.68804 78.449,-33.79926 26.316,-25.22236 38.632,-54.26817 33.792,-79.69144 z m -42.849,57.79482 c -20.354,19.50848 -44.349,29.81903 -69.391,29.81903 h -234.89 c -25.129662,0 -49.036,-10.31055 -69.39,-29.81903 -18.288,-17.52825 -28.946,-37.86016 -26.522,-50.59387 1.828,-9.60127 11.528,-17.03205 25.948,-19.87681 2.703,-0.53425 5.075,-3.00915 6.376,-6.65453 1.302,-3.6469 1.375,-8.02135 0.198,-11.76414 -15.953,-50.71107 -15.49,-87.24094 -6.954,-95.86656 1.767,-1.78539 3.912,-2.46729 6.158,-2.46729 3.268,0 6.748,1.44293 9.585,3.02894 3.135,1.74887 6.654,0.54795 8.995,-3.07916 2.341,-3.62712 3.068,-9.00462 1.86,-13.74437 -11.091,-43.52382 -8.715,-70.85273 -1.813,-77.82689 6.702,-6.77781 20.889,0.6758 36.135,18.99554 2.826,3.39575 6.751,3.71387 9.8,0.78995 3.047,-2.92391 4.552,-8.4521 3.757,-13.79916 -5.561,-37.417237 -3.287,-68.091674 5.527,-74.593991 8.551,-6.304447 25.319,9.158343 40.795,37.586193 2.256,4.143096 5.961,5.723008 9.299,3.9848 3.343,-1.74278 5.629,-6.452089 5.742,-11.826546 0.678,-32.321325 6.722,-56.237736 15.037,-59.513248 7.707,-3.028935 19.389,10.796099 29.774,35.230016 1.566,3.684951 4.253,5.910229 7.137,5.910229 2.884,0 5.57,-2.225278 7.137,-5.910229 10.385,-24.432395 22.069,-38.263517 29.773,-35.230016 8.315,3.27399 14.359,27.190401 15.038,59.513248 0.113,5.374457 2.399,10.083766 5.742,11.826546 3.341,1.739738 7.045,0.156774 9.299,-3.986322 15.478,-28.430894 32.258,-43.889118 40.794,-37.584671 8.815,6.502317 11.088,37.178276 5.526,74.593991 -0.794,5.34706 0.711,10.87525 3.758,13.79916 3.047,2.92239 6.974,2.60732 9.8,-0.78995 15.245,-18.31821 29.429,-25.77487 36.137,-18.99402 6.9,6.97417 9.277,34.30308 -1.813,77.82689 -1.208,4.73975 -0.479,10.11726 1.86,13.74437 2.34,3.62711 5.858,4.82955 8.995,3.07916 4.787,-2.67581 11.406,-4.94675 15.743,-0.56165 8.535,8.62562 8.998,45.15549 -6.954,95.86808 -1.177,3.74127 -1.104,8.11725 0.198,11.76262 1.302,3.6469 3.673,6.12028 6.376,6.65453 14.42,2.84476 24.119,10.27555 25.947,19.87681 2.426,12.73219 -8.232,33.0641 -26.519,50.59235 z"
   id="path176"
   sodipodi:nodetypes="ccccccccccccccccccccsssccssscccccscsccsccccccccsccccccccccccccccccc" />
	<path
   d="m 149.419,309.08139 c -14.611,0 -26.499,11.887 -26.499,26.499 0,14.612 11.888,26.499 26.499,26.499 14.611,0 26.499,-11.887 26.499,-26.499 0,-14.612 -11.888,-26.499 -26.499,-26.499 z m 0,35.998 c -5.237,0 -9.499,-4.261 -9.499,-9.499 0,-5.238 4.262,-9.499 9.499,-9.499 5.237,0 9.499,4.261 9.499,9.499 0,5.238 -4.262,9.499 -9.499,9.499 z"
   id="path178" />
	<path
   d="m 305.414,309.08139 c -14.611,0 -26.499,11.887 -26.499,26.499 0,14.612 11.888,26.499 26.499,26.499 14.612,0 26.5,-11.887 26.5,-26.499 0,-14.612 -11.888,-26.499 -26.5,-26.499 z m 0,35.998 c -5.237,0 -9.499,-4.261 -9.499,-9.499 0,-5.238 4.262,-9.499 9.499,-9.499 5.238,0 9.5,4.261 9.5,9.499 0,5.238 -4.262,9.499 -9.5,9.499 z"
   id="path180" />
	<path
   d="m 230.719,149.01905 c -14.611,0 -26.499,11.887 -26.499,26.499 0,14.612 11.888,26.499 26.499,26.499 14.611,0 26.499,-11.887 26.499,-26.499 0,-14.612 -11.888,-26.499 -26.499,-26.499 z m 0,35.998 c -5.237,0 -9.499,-4.261 -9.499,-9.499 0,-5.238 4.262,-9.499 9.499,-9.499 5.237,0 9.499,4.261 9.499,9.499 0,5.238 -4.262,9.499 -9.499,9.499 z"
   id="path182" />
	<path
   d="m 227.417,274.48539 c -14.611,0 -26.499,11.887 -26.499,26.499 0,14.612 11.888,26.499 26.499,26.499 14.611,0 26.499,-11.887 26.499,-26.499 0,-14.612 -11.888,-26.499 -26.499,-26.499 z m 0,35.998 c -5.237,0 -9.499,-4.261 -9.499,-9.499 0,-5.238 4.262,-9.499 9.499,-9.499 5.237,0 9.499,4.261 9.499,9.499 0,5.238 -4.262,9.499 -9.499,9.499 z"
   id="path184" />
	<path
   d="m 157.504,225.93205 c 0,-14.612 -11.888,-26.499 -26.499,-26.499 -14.611,0 -26.499,11.887 -26.499,26.499 0,14.612 11.888,26.5 26.499,26.5 14.611,0 26.499,-11.889 26.499,-26.5 z m -35.998,0 c 0,-5.238 4.262,-9.499 9.499,-9.499 5.237,0 9.499,4.261 9.499,9.499 0,5.238 -4.262,9.5 -9.499,9.5 -5.238,-0.001 -9.499,-4.262 -9.499,-9.5 z"
   id="path186" />
	<path
   d="m 330.432,199.43305 c -14.612,0 -26.5,11.887 -26.5,26.499 0,14.612 11.888,26.5 26.5,26.5 14.611,0 26.499,-11.888 26.499,-26.5 0,-14.612 -11.887,-26.499 -26.499,-26.499 z m 0,35.998 c -5.238,0 -9.5,-4.261 -9.5,-9.5 0,-5.238 4.262,-9.499 9.5,-9.499 5.237,0 9.499,4.261 9.499,9.499 0,5.239 -4.261,9.5 -9.499,9.5 z"
   id="path188" />
</g>
</svg>
