<?xml version="1.0" encoding="UTF-8" standalone="no"?>
<!-- Uploaded to: SVG Repo, www.svgrepo.com, Transformed by: SVG Repo Mixer Tools -->

<svg
   width="800px"
   height="800px"
   viewBox="0 0 512 512"
   version="1.1"
   xml:space="preserve"
   fill="#000000"
   id="svg513"
   sodipodi:docname="grass.svg"
   inkscape:version="1.1.2 (0a00cf5339, 2022-02-04)"
   xmlns:inkscape="http://www.inkscape.org/namespaces/inkscape"
   xmlns:sodipodi="http://sodipodi.sourceforge.net/DTD/sodipodi-0.dtd"
   xmlns="http://www.w3.org/2000/svg"
   xmlns:svg="http://www.w3.org/2000/svg"><defs
   id="defs517" /><sodipodi:namedview
   id="namedview515"
   pagecolor="#ffffff"
   bordercolor="#666666"
   borderopacity="1.0"
   inkscape:pageshadow="2"
   inkscape:pageopacity="0.0"
   inkscape:pagecheckerboard="0"
   showgrid="false"
   inkscape:zoom="0.99"
   inkscape:cx="399.49495"
   inkscape:cy="400"
   inkscape:window-width="1920"
   inkscape:window-height="1007"
   inkscape:window-x="0"
   inkscape:window-y="0"
   inkscape:window-maximized="1"
   inkscape:current-layer="svg513" />

<g
   id="SVGRepo_bgCarrier"
   stroke-width="0" />

<g
   id="SVGRepo_tracerCarrier"
   stroke-linecap="round"
   stroke-linejoin="round" />

<g
   id="SVGRepo_iconCarrier"
   transform="matrix(1.18718,0,0,1.5828691,-47.920716,-149.24357)"> <style
   type="text/css"
   id="style502"> .st0{display:none;} .st1{fill:#000000;} </style> <g
   class="st0"
   id="Layer_1" /> <g
   id="Layer_2"> <g
   id="g509"> <path
   class="st1"
   d="m 115.17,365.89 c 0.87,0 1.76,-0.16 2.62,-0.51 3.59,-1.45 5.32,-5.52 3.88,-9.11 l -0.06,-0.16 c -0.07,-0.18 -0.19,-0.44 -0.28,-0.62 -1.68,-3.48 -5.86,-4.95 -9.34,-3.27 -3.47,1.67 -4.94,5.83 -3.29,9.31 1.1,2.72 3.71,4.36 6.47,4.36 z"
   id="path505" /> <path
   class="st1"
   d="m 464.63,211.36 c -21.26,0 -42.12,3.05 -62.18,9.07 5.47,-14.48 9.63,-23.28 10.58,-25.25 0.01,-0.01 0.05,-0.1 0.05,-0.11 1.39,-2.92 0.6,-6.41 -1.91,-8.44 -2.51,-2.04 -6.09,-2.08 -8.66,-0.12 -11.71,8.96 -22.96,19.38 -33.64,31.16 17.56,-67.76 38.48,-111.22 39.48,-113.27 0,-0.01 0.03,-0.06 0.03,-0.07 1.41,-2.92 0.63,-6.42 -1.88,-8.47 -2.51,-2.05 -6.1,-2.1 -8.67,-0.13 -54.94,42.02 -101.17,105.02 -137.42,187.24 -9.17,20.83 -17.55,42.6 -24.89,64.7 -0.78,2.36 -1.55,4.71 -2.3,7.05 -0.17,0.53 -0.34,1.07 -0.51,1.6 -0.73,2.3 -1.45,4.58 -2.15,6.84 -0.02,0.08 -0.05,0.16 -0.08,0.24 -0.07,-0.19 -0.15,-0.38 -0.23,-0.57 -0.44,-1.14 -0.9,-2.28 -1.37,-3.42 -0.12,-0.28 -0.23,-0.56 -0.35,-0.84 -0.55,-1.32 -1.12,-2.64 -1.71,-3.94 -0.12,-0.27 -0.24,-0.53 -0.36,-0.8 -0.52,-1.14 -1.04,-2.27 -1.58,-3.39 -0.12,-0.26 -0.24,-0.51 -0.37,-0.77 -0.63,-1.3 -1.28,-2.59 -1.94,-3.87 -0.13,-0.24 -0.25,-0.48 -0.38,-0.73 -0.59,-1.13 -1.19,-2.25 -1.81,-3.37 -0.12,-0.23 -0.25,-0.45 -0.37,-0.68 -0.71,-1.27 -1.43,-2.54 -2.17,-3.8 -0.13,-0.22 -0.26,-0.44 -0.4,-0.66 -0.66,-1.12 -1.34,-2.22 -2.03,-3.33 -0.13,-0.2 -0.25,-0.41 -0.38,-0.61 -0.78,-1.24 -1.58,-2.47 -2.4,-3.7 -0.14,-0.21 -0.28,-0.41 -0.41,-0.61 -0.73,-1.09 -1.48,-2.18 -2.24,-3.25 -0.13,-0.19 -0.26,-0.37 -0.39,-0.56 -0.85,-1.2 -1.72,-2.39 -2.61,-3.57 -0.15,-0.2 -0.3,-0.39 -0.45,-0.59 -0.79,-1.05 -1.6,-2.1 -2.42,-3.13 -0.14,-0.18 -0.28,-0.36 -0.42,-0.54 -0.92,-1.15 -1.85,-2.29 -2.8,-3.43 -0.17,-0.2 -0.34,-0.4 -0.51,-0.6 -0.84,-0.99 -1.7,-1.98 -2.56,-2.96 -0.16,-0.18 -0.32,-0.37 -0.49,-0.55 -0.97,-1.09 -1.96,-2.17 -2.97,-3.24 -0.2,-0.22 -0.41,-0.43 -0.61,-0.64 -0.87,-0.91 -1.74,-1.82 -2.63,-2.72 -0.2,-0.2 -0.4,-0.41 -0.6,-0.61 -1.02,-1.02 -2.05,-2.03 -3.09,-3.03 -0.09,-0.08 -0.17,-0.17 -0.26,-0.26 -1.64,-9.33 -3.8,-18.94 -6.42,-28.6 -12.62,-46.48 -33.48,-85.97 -46.73,-108.2 5.14,2.35 10.2,4.87 15.14,7.54 38.02,20.54 70.45,50.68 93.79,87.16 2.08,3.26 6.42,4.21 9.67,2.12 3.26,-2.08 4.21,-6.41 2.12,-9.67 -24.62,-38.48 -58.83,-70.27 -98.94,-91.93 -11.87,-6.4 -24.36,-11.99 -37.13,-16.59 -2.86,-1.03 -6.06,-0.08 -7.92,2.34 -1.86,2.42 -1.92,5.78 -0.18,8.28 1.56,2.24 38.49,55.72 56.65,122.63 0.83,3.08 1.6,6.14 2.33,9.19 -21.43,-37.82 -46.67,-68.01 -75.08,-89.74 -2.56,-1.96 -6.13,-1.91 -8.64,0.11 -2.51,2.02 -3.32,5.5 -1.95,8.42 l 0.08,0.16 c 1.12,2.32 10.21,21.56 19.73,52.07 -12.82,-2.88 -25.97,-4.34 -39.24,-4.34 -3.06,0 -5.76,1.98 -6.67,4.9 -0.92,2.91 0.16,6.09 2.66,7.84 0.1,0.07 6.37,4.48 15.5,12.33 -9.35,-1.8 -18.9,-2.7 -28.58,-2.7 -3.05,0 -5.75,1.98 -6.67,4.9 -0.92,2.92 0.16,6.09 2.66,7.84 0.33,0.23 33.51,23.7 55.37,58.31 2.06,3.27 6.39,4.25 9.66,2.18 3.27,-2.06 4.25,-6.39 2.18,-9.66 -12.89,-20.42 -29.1,-36.94 -41.3,-47.84 10.33,1.66 20.42,4.51 30.15,8.53 3.06,1.26 6.59,0.21 8.45,-2.52 1.87,-2.73 1.57,-6.4 -0.72,-8.79 C 99.58,277 92.36,270.31 86.25,265 c 8.72,1.16 17.32,3.01 25.73,5.54 2.67,0.8 5.41,1.71 8.13,2.69 1.83,0.66 3.65,1.35 5.45,2.08 10.81,4.34 21.12,9.82 30.76,16.36 0.69,0.47 1.36,0.96 2.04,1.44 0.91,0.64 1.83,1.26 2.72,1.92 3.3,2.4 6.6,5.01 9.79,7.73 1.75,1.5 3.43,3 5.02,4.48 1.48,1.37 2.93,2.77 4.35,4.19 0.49,0.49 0.96,1 1.44,1.49 0.92,0.94 1.84,1.87 2.74,2.83 0.56,0.6 1.1,1.22 1.65,1.83 0.79,0.87 1.59,1.74 2.36,2.63 0.57,0.66 1.12,1.34 1.68,2.01 0.72,0.86 1.45,1.71 2.15,2.58 0.56,0.7 1.1,1.42 1.65,2.13 0.67,0.86 1.35,1.72 2,2.59 0.55,0.73 1.07,1.48 1.6,2.22 0.63,0.87 1.26,1.73 1.87,2.62 0.52,0.76 1.02,1.53 1.54,2.3 0.59,0.88 1.19,1.76 1.76,2.66 0.5,0.78 0.97,1.58 1.46,2.37 0.55,0.9 1.11,1.79 1.65,2.7 0.47,0.8 0.92,1.62 1.38,2.43 0.52,0.91 1.04,1.82 1.54,2.75 0.44,0.82 0.87,1.66 1.3,2.49 0.48,0.93 0.97,1.85 1.43,2.79 0.42,0.84 0.81,1.69 1.21,2.54 0.45,0.94 0.9,1.89 1.32,2.84 0.38,0.86 0.75,1.72 1.12,2.59 0.41,0.96 0.83,1.92 1.22,2.89 0.35,0.87 0.69,1.76 1.03,2.64 0.37,0.97 0.75,1.94 1.11,2.93 0.32,0.89 0.63,1.79 0.93,2.69 0.34,0.99 0.68,1.97 1,2.97 0.29,0.9 0.56,1.82 0.84,2.73 0.3,1 0.61,2 0.89,3.01 0.26,0.92 0.5,1.84 0.74,2.76 0.19,0.74 0.38,1.47 0.57,2.21 -0.38,1.38 -0.74,2.76 -1.11,4.13 -0.03,0.12 -0.06,0.24 -0.09,0.36 -0.44,1.65 -0.86,3.29 -1.27,4.92 -0.12,0.46 -0.23,0.92 -0.35,1.37 -0.42,1.68 -0.84,3.34 -1.24,4.98 -0.01,0.05 -0.02,0.09 -0.03,0.14 -0.02,0.07 -0.03,0.13 -0.05,0.2 h -87.57 c 0.16,-7.55 -0.54,-15.21 -2.12,-22.88 -0.78,-3.79 -4.47,-6.22 -8.26,-5.45 -3.79,0.78 -6.23,4.48 -5.45,8.26 1.83,8.9 2.31,17.77 1.43,26.36 -0.2,1.97 0.44,3.93 1.77,5.4 1.33,1.47 3.21,2.31 5.2,2.31 h 100.54 31.44 96.13 c 0.95,0 1.87,-0.19 2.72,-0.55 h 16.63 c 1.98,0 3.87,-0.84 5.2,-2.31 1.33,-1.47 1.97,-3.43 1.77,-5.4 -7.15,-69.91 75.33,-128.56 76.16,-129.14 2.5,-1.75 3.58,-4.92 2.67,-7.84 -0.91,-2.92 -3.62,-4.9 -6.68,-4.9 -11.63,0 -23.09,1.27 -34.25,3.8 26.24,-29.09 51.74,-47.08 52.04,-47.29 2.5,-1.75 3.58,-4.92 2.67,-7.84 -0.94,-2.94 -3.64,-4.92 -6.69,-4.92 z m -75.9,5.75 c -1.08,2.88 -2.19,5.96 -3.34,9.22 -0.34,0.13 -0.67,0.28 -1.01,0.41 -0.67,0.27 -1.33,0.54 -1.99,0.81 -0.91,0.37 -1.81,0.75 -2.71,1.14 -0.66,0.28 -1.33,0.57 -1.99,0.86 -0.37,0.16 -0.75,0.32 -1.12,0.49 3.97,-4.51 8.03,-8.83 12.16,-12.93 z M 120.02,258.4 c -0.12,-0.04 -0.24,-0.08 -0.36,-0.12 -3.94,-13.43 -7.9,-25.02 -11.42,-34.48 12.86,12.84 24.92,27.75 36.1,44.63 -0.38,-0.19 -0.76,-0.36 -1.14,-0.55 -0.67,-0.33 -1.35,-0.66 -2.03,-0.98 -1.12,-0.53 -2.24,-1.06 -3.37,-1.57 -0.67,-0.3 -1.35,-0.61 -2.02,-0.91 -1.22,-0.53 -2.45,-1.05 -3.68,-1.55 -0.58,-0.24 -1.16,-0.49 -1.75,-0.72 -1.82,-0.72 -3.65,-1.43 -5.49,-2.09 -1.61,-0.58 -3.23,-1.13 -4.84,-1.66 z m 130.12,143.06 c -0.09,0.73 -0.17,1.46 -0.25,2.2 0,0.02 -0.01,0.05 -0.01,0.07 h -16.17 c 0.09,-0.35 0.17,-0.69 0.26,-1.04 0.37,-1.49 0.76,-2.99 1.15,-4.5 0.18,-0.69 0.35,-1.37 0.53,-2.06 0.57,-2.18 1.16,-4.37 1.77,-6.59 1.6,-5.85 3.33,-11.84 5.13,-17.8 1.93,-6.4 4.03,-13.02 6.24,-19.67 1.8,-5.42 3.67,-10.83 5.59,-16.2 5.77,-16.12 12.08,-31.96 18.83,-47.28 30.2,-68.5 67.37,-123.18 110.71,-162.95 -9.99,25.14 -24.32,66.1 -35.72,118.24 -0.04,0.15 -0.07,0.3 -0.1,0.45 0,0.01 -0.01,0.02 -0.01,0.03 -0.04,0.17 -0.07,0.34 -0.11,0.51 -0.05,0.24 -0.1,0.47 -0.15,0.71 -0.52,0.33 -1.04,0.67 -1.56,1.02 -0.04,0.03 -0.08,0.06 -0.12,0.08 -0.78,0.51 -1.55,1.02 -2.26,1.51 -0.03,0.02 -0.06,0.04 -0.09,0.06 -0.03,0.02 -0.05,0.04 -0.08,0.05 -1.31,0.88 -2.48,1.68 -3.5,2.41 0,0 -0.01,0 -0.01,0.01 -0.7,0.48 -1.41,0.99 -2.07,1.47 -0.91,0.66 -1.82,1.32 -2.66,1.96 -2.66,1.98 -5.28,4.03 -7.76,6.07 -0.86,0.7 -1.71,1.41 -2.54,2.11 -3.11,2.63 -6.19,5.38 -9.18,8.21 -1,0.94 -1.98,1.9 -2.96,2.86 -0.55,0.54 -1.08,1.07 -1.62,1.62 -0.52,0.52 -1.04,1.04 -1.48,1.5 -0.73,0.74 -1.44,1.48 -2.14,2.22 -0.73,0.77 -1.44,1.53 -2.16,2.31 -0.19,0.2 -0.37,0.4 -0.54,0.6 -0.55,0.59 -1.08,1.18 -1.62,1.78 -0.31,0.34 -0.62,0.68 -0.92,1.04 -0.45,0.5 -0.9,1.01 -1.32,1.5 l -0.1,0.11 c -0.26,0.3 -0.52,0.6 -0.77,0.9 -0.51,0.58 -1,1.16 -1.43,1.68 -0.6,0.71 -1.19,1.42 -1.71,2.07 -0.61,0.73 -1.2,1.47 -1.79,2.21 -0.01,0.02 -0.03,0.04 -0.04,0.06 -0.04,0.05 -0.08,0.11 -0.12,0.16 -0.64,0.81 -1.28,1.61 -1.87,2.38 -0.56,0.72 -1.11,1.43 -1.6,2.1 -0.51,0.68 -1.03,1.36 -1.49,2 l -0.15,0.21 c -0.02,0.03 -0.05,0.07 -0.07,0.1 -0.63,0.86 -1.24,1.71 -1.86,2.58 -0.05,0.07 -0.1,0.13 -0.14,0.2 -0.41,0.57 -0.81,1.15 -1.22,1.75 -0.22,0.32 -0.44,0.64 -0.67,0.98 -0.43,0.62 -0.85,1.24 -1.27,1.87 l -0.26,0.39 c -3.34,5.02 -6.5,10.21 -9.37,15.42 -13.39,24.32 -21.87,50.67 -25.17,78.32 z M 390.43,280.85 c -1.93,2.5 -1.95,5.98 -0.05,8.5 1.9,2.52 5.26,3.46 8.19,2.28 9.83,-3.94 20.01,-6.73 30.43,-8.36 -7.62,6.77 -16.83,15.74 -25.92,26.49 -26.16,30.95 -39.46,63.07 -38.78,93.42 h -11.96 c -0.94,0 -1.87,0.19 -2.72,0.55 h -85.65 c 0.02,-0.2 0.05,-0.4 0.07,-0.6 3.09,-25.86 11.02,-50.5 23.56,-73.24 2.68,-4.88 5.63,-9.72 8.75,-14.41 l 0.27,-0.4 c 0.36,-0.54 0.72,-1.08 1.09,-1.61 0.02,-0.03 0.09,-0.13 0.11,-0.16 0.57,-0.84 1.14,-1.67 1.73,-2.49 0.03,-0.05 0.07,-0.09 0.1,-0.14 0,0 0,0 0,0 0.58,-0.81 1.16,-1.62 1.74,-2.42 0.08,-0.1 0.15,-0.21 0.23,-0.32 0.46,-0.63 0.93,-1.25 1.44,-1.94 0.46,-0.63 0.95,-1.25 1.45,-1.9 0.6,-0.78 1.21,-1.57 1.83,-2.34 0.07,-0.09 0.14,-0.17 0.2,-0.26 0.21,-0.26 0.42,-0.53 0.64,-0.8 0.29,-0.36 0.59,-0.73 0.91,-1.12 0.5,-0.62 1.01,-1.25 1.59,-1.93 0.43,-0.52 0.86,-1.03 1.31,-1.53 0.06,-0.07 0.12,-0.13 0.17,-0.2 0.18,-0.22 0.37,-0.44 0.55,-0.65 l 0.13,-0.15 c 0.4,-0.46 0.8,-0.92 1.21,-1.38 0.05,-0.05 0.1,-0.11 0.14,-0.16 0.19,-0.23 0.38,-0.45 0.58,-0.66 0.04,-0.04 0.08,-0.09 0.12,-0.13 0.52,-0.59 1.05,-1.17 1.59,-1.75 0.09,-0.1 0.18,-0.2 0.27,-0.31 0.03,-0.03 0.07,-0.07 0.1,-0.1 0.7,-0.76 1.4,-1.51 2.12,-2.27 0.64,-0.67 1.28,-1.35 2,-2.08 0.42,-0.44 0.85,-0.88 1.29,-1.31 0.03,-0.03 0.06,-0.06 0.09,-0.09 0.49,-0.5 0.98,-0.99 1.49,-1.49 3.66,-3.6 7.48,-7.08 11.37,-10.38 0.78,-0.66 1.56,-1.31 2.36,-1.96 2.32,-1.9 4.75,-3.8 7.28,-5.69 0.82,-0.61 1.64,-1.22 2.45,-1.8 0.07,-0.05 0.14,-0.1 0.21,-0.15 0.5,-0.37 1,-0.72 1.5,-1.07 0.1,-0.07 0.19,-0.13 0.28,-0.2 0.99,-0.71 2.07,-1.45 3.38,-2.32 0.08,-0.05 0.15,-0.1 0.23,-0.15 0.61,-0.42 1.22,-0.83 1.83,-1.23 0.08,-0.05 0.15,-0.1 0.23,-0.15 l 1.51,-0.99 c 0.75,-0.48 1.5,-0.96 2.26,-1.43 0,0 0.01,0 0.01,-0.01 0,0 0,0 0.01,0 1.41,-0.88 2.83,-1.74 4.26,-2.58 10.01,-5.9 20.54,-10.94 31.38,-15.02 15.96,-6.01 32.53,-9.94 49.5,-11.74 -13.93,11.74 -34,30.46 -52.46,54.33 z"
   id="path507" /> </g> </g> </g>

</svg>
