<?xml version="1.0" encoding="UTF-8" standalone="no"?>
<!-- Uploaded to: SVG Repo, www.svgrepo.com, Generator: SVG Repo Mixer Tools -->

<svg
   fill="#000000"
   height="800px"
   width="800px"
   version="1.1"
   id="Layer_1"
   viewBox="0 0 512 512"
   xml:space="preserve"
   sodipodi:docname="mushroom2.svg"
   inkscape:version="1.1.2 (0a00cf5339, 2022-02-04)"
   xmlns:inkscape="http://www.inkscape.org/namespaces/inkscape"
   xmlns:sodipodi="http://sodipodi.sourceforge.net/DTD/sodipodi-0.dtd"
   xmlns="http://www.w3.org/2000/svg"
   xmlns:svg="http://www.w3.org/2000/svg"><defs
   id="defs852" /><sodipodi:namedview
   id="namedview850"
   pagecolor="#ffffff"
   bordercolor="#666666"
   borderopacity="1.0"
   inkscape:pageshadow="2"
   inkscape:pageopacity="0.0"
   inkscape:pagecheckerboard="0"
   showgrid="false"
   inkscape:zoom="1.02625"
   inkscape:cx="400"
   inkscape:cy="285.50548"
   inkscape:window-width="1920"
   inkscape:window-height="1007"
   inkscape:window-x="0"
   inkscape:window-y="0"
   inkscape:window-maximized="1"
   inkscape:current-layer="g845" />
<g
   id="g847">
	<g
   id="g845">
		<path
   d="m 423.673,51.219 c -4.254,-3.13 -8.64,-6.126 -13.147,-8.986 -0.926,-1.002 -2.115,-1.749 -3.451,-2.14 C 364.59,14.133 311.734,0 256,0 192.754,0 133.207,18.19 88.327,51.219 42.744,84.766 1,129.59 1,177.436 c 0,3.107 1.88,5.903 4.757,7.074 2.215,0.903 65.938,19.473 190.065,24.263 l -10.695,75.044 c -0.013,0.092 -0.024,0.182 -0.034,0.273 -0.854,8.048 1.761,16.115 7.174,22.133 5.245,5.831 12.682,9.241 20.5,9.448 l -24.722,155.262 c -0.035,0.216 -0.059,0.432 -0.075,0.65 -0.754,10.406 2.889,20.756 9.995,28.395 7.106,7.639 17.164,12.022 27.598,12.022 h 59.742 c 10.433,0 20.493,-4.382 27.599,-12.021 7.107,-7.64 10.75,-17.99 9.996,-28.396 -0.016,-0.218 -0.041,-0.434 -0.075,-0.65 L 298.088,315.572 c 7.165,-0.637 13.886,-3.958 18.735,-9.348 5.412,-6.016 8.029,-14.084 7.175,-22.132 -0.009,-0.092 -0.021,-0.182 -0.034,-0.274 l -10.715,-75.185 c 110.384,-4.972 190.561,-22.986 193.556,-23.87 3.247,-0.958 5.476,-3.941 5.476,-7.327 -0.002,-47.845 -43.025,-92.67 -88.608,-126.217 z m 25.304,44.952 c 0.418,22.625 -17.335,41.647 -40.07,42.639 -23.087,1.032 -42.698,-16.958 -43.706,-40.048 -0.969,-22.175 15.563,-41.125 37.326,-43.488 18.381,11.661 34.113,25.476 46.45,40.897 z M 196.26,23.524 c 0.612,-0.798 1.036,-1.678 1.292,-2.59 13.696,-2.705 27.909,-4.486 42.509,-5.239 0.453,0.682 1.019,1.305 1.705,1.831 14.2,10.891 16.891,31.306 5.999,45.506 -5.276,6.879 -12.915,11.292 -21.51,12.424 -8.591,1.134 -17.116,-1.149 -23.996,-6.427 -14.2,-10.89 -16.891,-31.303 -5.999,-45.505 z m 111.421,449.467 c 0.366,6.169 -1.745,12.046 -5.964,16.581 -4.287,4.609 -10.116,7.149 -16.41,7.149 h -59.742 c -6.295,0 -12.123,-2.538 -16.41,-7.149 -4.219,-4.535 -6.33,-10.413 -5.963,-16.581 l 25.046,-157.299 h 54.397 z m -2.219,-176.986 c -2.558,2.842 -6.071,4.408 -9.894,4.408 h -82.047 c -3.823,0 -7.337,-1.566 -9.894,-4.408 -2.529,-2.811 -3.717,-6.423 -3.352,-10.18 l 10.82,-75.928 h 7.367 v 39.182 c 0,4.22 3.421,7.64 7.64,7.64 4.219,0 7.64,-3.42 7.64,-7.64 v -39.182 h 14.967 v 39.182 c 0,4.22 3.421,7.64 7.64,7.64 4.219,0 7.64,-3.42 7.64,-7.64 v -39.182 h 14.968 v 39.182 c 0,4.22 3.419,7.64 7.64,7.64 4.221,0 7.64,-3.42 7.64,-7.64 v -39.182 h 3.758 l 10.82,75.928 c 0.364,3.756 -0.824,7.368 -3.353,10.18 z M 212.627,165.813 c -0.025,-11.196 4.311,-21.732 12.211,-29.668 7.899,-7.935 18.416,-12.319 29.613,-12.345 h 0.098 c 11.16,0 21.659,4.335 29.571,12.211 7.934,7.899 12.318,18.416 12.344,29.613 0.023,10.731 -3.969,20.849 -11.254,28.658 -9.334,0.216 -18.953,0.334 -28.861,0.334 -11.301,0 -22.11,-0.113 -32.458,-0.321 -7.247,-7.758 -11.24,-17.808 -11.264,-28.482 z m 91.822,27.872 c 4.772,-8.486 7.316,-18.094 7.293,-28.095 -0.035,-15.278 -6.016,-29.629 -16.844,-40.408 -10.796,-10.748 -25.12,-16.662 -40.349,-16.662 -0.044,0 -0.089,0 -0.132,0.001 -15.278,0.034 -29.628,6.016 -40.406,16.844 -18.459,18.541 -21.533,46.667 -9.29,68.42 -47.234,-1.57 -83.654,-5.17 -110.806,-9.089 2.198,-48.205 28.796,-84.572 75.49,-102.811 3.93,-1.536 5.871,-5.966 4.336,-9.896 -1.535,-3.93 -5.965,-5.871 -9.896,-4.337 -27.863,10.885 -49.463,27.618 -64.201,49.739 -12.534,18.812 -19.54,40.624 -20.909,64.93 -24.042,-4.069 -55.367,-8.114 -62.332,-10.3 14.599884,-63.80614 78.999,-123.917 161.278,-146.417 -7.705,19.35 -2.041,42.264 15.279,55.55 8.422,6.46 18.517,9.868 28.956,9.868 2.101,0 4.218,-0.138 6.337,-0.418 12.641,-1.667 23.877,-8.156 31.638,-18.273 13.127,-17.113 12.832,-40.356 0.811,-57.01 45.739,0.691 88.133,11.439 123.168,29.318 -7.103,3.151 -13.551,7.749 -18.958,13.65 -10.322,11.265 -15.64,25.873 -14.973,41.137 1.339,30.665 26.713,54.705 57.114,54.702 0.836,0 1.68,-0.018 2.525,-0.055 24.541,-1.072 46.115,-20.1 53.242,-42.217 17.97909,11.85508 33.052,39.533 34.04,59.747 -18.146,4.589 -97.424,18.37 -192.411,22.082 z"
   id="path843"
   sodipodi:nodetypes="cccscsccccccccsssscccccccccccccccsccccccsccssccccccssccccsssccsssccssscccccscscccscccccscccccsccccccsccccscscccc" />
	</g>
</g>
</svg>
