<?xml version="1.0" encoding="UTF-8" standalone="no"?>
<!-- Uploaded to: SVG Repo, www.svgrepo.com, Generator: SVG Repo Mixer Tools -->

<svg
   fill="#000000"
   height="800px"
   width="800px"
   version="1.1"
   id="Layer_1"
   viewBox="0 0 512.002 512.002"
   xml:space="preserve"
   sodipodi:docname="mushroom1.svg"
   inkscape:version="1.1.2 (0a00cf5339, 2022-02-04)"
   xmlns:inkscape="http://www.inkscape.org/namespaces/inkscape"
   xmlns:sodipodi="http://sodipodi.sourceforge.net/DTD/sodipodi-0.dtd"
   xmlns="http://www.w3.org/2000/svg"
   xmlns:svg="http://www.w3.org/2000/svg"><defs
   id="defs633" /><sodipodi:namedview
   id="namedview631"
   pagecolor="#ffffff"
   bordercolor="#666666"
   borderopacity="1.0"
   inkscape:pageshadow="2"
   inkscape:pageopacity="0.0"
   inkscape:pagecheckerboard="0"
   showgrid="false"
   inkscape:zoom="1.02625"
   inkscape:cx="400"
   inkscape:cy="375.15225"
   inkscape:window-width="1920"
   inkscape:window-height="1007"
   inkscape:window-x="0"
   inkscape:window-y="0"
   inkscape:window-maximized="1"
   inkscape:current-layer="Layer_1" />
<g
   id="g598"
   transform="matrix(1.226381,0,0,1,-57.954027,0)">
	<g
   id="g596">
		<path
   d="m 149.612,282.5 c -6.135,-1.192 -12.299,-2.488 -18.32,-3.853 -4.097,-0.931 -8.169,1.64 -9.096,5.735 -0.929,4.096 1.64,8.169 5.735,9.096 6.174,1.399 12.493,2.727 18.78,3.95 0.49,0.095 7.226,2.18 8.915,-6.014 0.848,-4.112 -1.891,-8.113 -6.014,-8.914 z"
   id="path594" />
	</g>
</g>
<g
   id="g604"
   transform="matrix(1.226381,0,0,1,-57.954027,0)">
	<g
   id="g602">
		<path
   d="m 464.187,235.545 c -0.4,-2.311 -10.116,-57.227 -38.106,-112.658 C 385.484,42.494 326.672,0 256,0 185.328,0 126.515,42.494 85.919,122.887 c -12.823,25.395 -21.809,50.679 -27.823,70.85 -0.041,0.126 -0.079,0.251 -0.113,0.379 -7.031,23.653 -9.955,40.184 -10.171,41.43 -3.088,17.843 6.941,35.498 23.846,41.981 0.095,0.036 9.997,3.785 27.763,8.759 4.048,1.134 8.241,-1.23 9.372,-5.273 1.133,-4.044 -1.229,-8.241 -5.273,-9.372 -16.822,-4.708 -26.324,-8.277 -26.414,-8.312 -10.144,-3.89 -16.161,-14.483 -14.308,-25.188 0.167,-0.967 2.037,-11.539 6.325,-27.58 13.808,11.577 26.066373,20.59401 44.38637,20.59401 42.618,0 73.1141,-37.23101 73.1141,-79.84901 0,-20.377 -3.6881,-42.16202 -17.9641,-56.69601 C 157.81937,83.57499 149.426,78.755 134.589,75.673 c 19.675,-23.322 41.984,-40.085 66.482,-49.96 -0.022,0.761 -0.056,1.523 -0.056,2.282 0,42.618 34.672,77.29 77.289,77.29 34.334,0 64.148,-22.799 73.897,-54.73 23.032,19.014 43.311,45.537 60.305,79.189 26.979,53.427 36.312,106.178 36.697,108.397 1.871,10.805 -4.229,21.43 -14.503,25.263 -53.602,19.999 -111.95,30.14 -173.422,30.14 -26.783,0 -54.465,-2.04 -82.275,-6.062 -4.161,-0.608 -8.013,2.28 -8.615,6.438 -0.601,4.156 2.281,8.013 6.437,8.614 10.191,1.474 20.365,2.677 30.492,3.63 -9.303,36.108 -16.072,76.14 -19.425,102.836 -0.524,4.166 2.429,7.968 6.596,8.492 0.322,0.041 0.641,0.061 0.957,0.061 3.777,0 7.052,-2.811 7.535,-6.657 3.374,-26.858 10.261,-67.442 19.727,-103.492 12.996,0.884 25.882,1.35 38.57,1.35 9.467,0 18.863,-0.239 28.184,-0.707 13.795,52.783 22.169,115.402 22.169,133.118 0,30.674 -24.956,55.63 -55.631,55.63 -30.675,0 -55.631,-24.955 -55.631,-55.63 0,-4.2 -3.405,-7.604 -7.604,-7.604 -4.199,0 -7.604,3.404 -7.604,7.604 0,39.06 31.778,70.837 70.838,70.837 39.06,0 70.839,-31.777 70.839,-70.838 0,-20.387 -8.651,-82.271 -21.927,-134.115 47.374,-3.724 92.661,-13.561 135.103,-29.397 17.126,-6.389 27.291,-24.097 24.174,-42.107 z M 172.4582,151.304 c 0,34.232 -24.71883,62.081 -58.94983,62.081 -17.047997,0 -27.96737,-6.968 -39.66837,-19.229 5.765,-18.728 14.087,-41.506 25.654,-64.414 7.483,-14.821 15.607,-28.252 24.319,-40.277 31.762,2.618 48.6452,29.577 48.6452,61.839 z M 278.303,90.077 c -34.232,0 -62.081,-27.85 -62.081,-62.082 0,-2.516 0.173,-5.045 0.482,-7.561 12.601,-3.465 25.717,-5.225 39.296,-5.225 30.157,0 58.037,8.647 83.045,25.5 -5.924,28.442 -31.258,49.368 -60.742,49.368 z"
   id="path600"
   sodipodi:nodetypes="scscccccccccccsscccssccccsccccccsccscsssssssccssscccssscscs" />
	</g>
</g>
<g
   id="g610"
   transform="matrix(1.1192819,0,0,1,-30.835167,0)">
	<g
   id="g608">
		<path
   d="m 294.647,112.782 c -42.617,0 -77.289,34.671 -77.289,77.289 0,42.618 34.671,77.289 77.289,77.289 42.618,0 77.29,-34.671 77.29,-77.289 0,-42.618 -34.672,-77.289 -77.29,-77.289 z m 0,139.368 c -34.231,0 -62.081,-27.85 -62.081,-62.081 0,-34.231 27.849,-62.081 62.081,-62.081 34.232,0 62.082,27.85 62.082,62.081 0,34.232 -27.85,62.081 -62.082,62.081 z"
   id="path606" />
	</g>
</g>
<g
   id="g616"
   transform="matrix(1.226381,0,0,1,-57.954027,0)">
	<g
   id="g614">
		<path
   d="m 419.14,214.202 c -0.755,-4.13 -4.719,-6.864 -8.846,-6.115 -4.131,0.754 -6.87,4.714 -6.116,8.846 1.585,8.684 2.388,16.971 2.388,24.634 0,4.2 3.405,7.604 7.604,7.604 4.199,0 7.604,-3.405 7.605,-7.605 0,-8.576 -0.887,-17.782 -2.635,-27.364 z"
   id="path612" />
	</g>
</g>
<g
   id="g622"
   transform="matrix(1.226381,0,0,1,-57.954027,0)">
	<g
   id="g620">
		<path
   d="m 411.664,185.197 c -10.868,-33.23 -26.527,-58.867 -27.188,-59.943 -2.198,-3.576 -6.879,-4.692 -10.457,-2.493 -3.576,2.198 -4.694,6.881 -2.497,10.458 0.152,0.249 15.403,25.255 25.688,56.704 1.048,3.207 4.026,5.243 7.226,5.243 0.784,0 1.581,-0.122 2.364,-0.378 3.992,-1.306 6.17,-5.599 4.864,-9.591 z"
   id="path618" />
	</g>
</g>
<g
   id="g628"
   transform="matrix(1.226381,0,0,1,-57.954027,0)">
	<g
   id="g626">
		<path
   d="m 294.346,416.181 c -0.502,-4.17 -4.293,-7.16 -8.458,-6.642 -4.17,0.501 -7.144,4.289 -6.642,8.458 1.25,10.403 1.968,18.847 1.968,23.165 0,9.34 -5.144,17.879 -13.426,22.285 -3.709,1.972 -5.115,6.577 -3.143,10.285 1.368,2.569 3.999,4.034 6.72,4.034 1.204,0 2.427,-0.287 3.566,-0.892 13.256,-7.05 21.492,-20.736 21.492,-35.711 10e-4,-4.97 -0.737,-13.843 -2.077,-24.982 z"
   id="path624" />
	</g>
</g>
</svg>
