<?xml version="1.0" encoding="UTF-8" standalone="no"?>
<!-- Uploaded to: SVG Repo, www.svgrepo.com, Generator: SVG Repo Mixer Tools -->

<svg
   fill="#000000"
   height="800px"
   width="800px"
   version="1.1"
   id="Layer_1"
   viewBox="0 0 512.001 512.001"
   xml:space="preserve"
   sodipodi:docname="mushroom3.svg"
   inkscape:version="1.1.2 (0a00cf5339, 2022-02-04)"
   xmlns:inkscape="http://www.inkscape.org/namespaces/inkscape"
   xmlns:sodipodi="http://sodipodi.sourceforge.net/DTD/sodipodi-0.dtd"
   xmlns="http://www.w3.org/2000/svg"
   xmlns:svg="http://www.w3.org/2000/svg"><defs
   id="defs1601" /><sodipodi:namedview
   id="namedview1599"
   pagecolor="#ffffff"
   bordercolor="#666666"
   borderopacity="1.0"
   inkscape:pageshadow="2"
   inkscape:pageopacity="0.0"
   inkscape:pagecheckerboard="0"
   showgrid="false"
   inkscape:zoom="1.02625"
   inkscape:cx="392.20463"
   inkscape:cy="384.89647"
   inkscape:window-width="1920"
   inkscape:window-height="1007"
   inkscape:window-x="0"
   inkscape:window-y="0"
   inkscape:window-maximized="1"
   inkscape:current-layer="Layer_1" />
<g
   id="g1560"
   transform="matrix(1,0,0,1.0240942,0,-6.1681194)">
	<g
   id="g1558">
		<path
   d="m 219.693,6.023 h -44.05 C 78.794,6.023 0,84.815 0,181.666 c 0,36.128 29.392,65.52 65.52,65.52 h 74.554 C 124,316.761 113.912,399.519 113.912,422.221 c 0,46.183 37.573,83.755 83.756,83.755 46.183,0 83.756,-37.573 83.756,-83.755 0,-22.703 -10.088,-105.462 -26.163,-175.035 h 74.556 c 36.129,0 65.52,-29.392 65.52,-65.52 0,-96.849 -78.794,-175.643 -175.644,-175.643 z m 40.815,416.199 c 0,34.65 -28.19,62.838 -62.839,62.838 -34.65,0 -62.839,-28.19 -62.839,-62.838 0,-22.388 10.342,-106.042 26.724,-175.035 h 72.229 c 16.382,68.991 26.725,152.646 26.725,175.035 z M 329.817,226.269 H 65.52 c -24.594,0 -44.603,-20.009 -44.603,-44.603 0,-85.316 69.41,-154.727 154.727,-154.727 h 44.05 c 85.316,0 154.727,69.41 154.727,154.727 -10e-4,24.595 -20.01,44.603 -44.604,44.603 z"
   id="path1556" />
	</g>
</g>
<g
   id="g1566"
   transform="matrix(1,0,0,1.0240942,0,-6.1681194)">
	<g
   id="g1564">
		<path
   d="m 212.332,55.626 h -0.244 c -5.775,0 -10.458,4.682 -10.458,10.458 0,5.776 4.683,10.458 10.458,10.458 h 0.244 c 5.775,0 10.458,-4.682 10.458,-10.458 0,-5.776 -4.683,-10.458 -10.458,-10.458 z"
   id="path1562" />
	</g>
</g>
<g
   id="g1572"
   transform="matrix(1,0,0,1.0240942,0,-6.1681194)">
	<g
   id="g1570">
		<path
   d="m 176.762,55.775 c -64.035,3.06 -114.193,52.467 -114.193,112.48 0,5.776 4.683,10.458 10.458,10.458 5.775,0 10.458,-4.682 10.458,-10.458 0,-48.831 41.411,-89.061 94.276,-91.587 5.769,-0.275 10.222,-5.176 9.946,-10.946 -0.275,-5.769 -5.148,-10.215 -10.945,-9.947 z"
   id="path1568" />
	</g>
</g>
<g
   id="g1578"
   transform="matrix(1,0,0,1.0240942,0,-6.1681194)">
	<g
   id="g1576">
		<path
   d="m 168.801,334.412 c -5.679,-1.045 -11.131,2.723 -12.17,8.404 -5.38,29.398 -8.71,58.415 -8.71,68.442 0,5.776 4.683,10.458 10.458,10.458 5.775,0 10.458,-4.682 10.458,-10.458 0,-7.944 2.907,-34.84 8.369,-64.676 1.041,-5.681 -2.723,-11.13 -8.405,-12.17 z"
   id="path1574" />
	</g>
</g>
<g
   id="g1584"
   transform="matrix(1,0,0,1.0240942,0,-6.1681194)">
	<g
   id="g1582">
		<path
   d="m 176.598,301.723 c -5.575,-1.488 -11.311,1.829 -12.799,7.41 -0.042,0.157 -0.098,0.384 -0.132,0.543 -1.229,5.645 2.352,11.216 7.998,12.442 0.749,0.162 1.496,0.241 2.232,0.241 4.724,0 8.985,-3.22 10.147,-7.968 1.401,-5.54 -1.908,-11.192 -7.446,-12.668 z"
   id="path1580" />
	</g>
</g>
<g
   id="g1590"
   transform="matrix(1,0,0,1.0240942,0,-6.1681194)">
	<g
   id="g1588">
		<path
   d="m 427.249,269.617 h -19.81 c -46.731,0 -84.749,38.018 -84.749,84.75 0,19.421 15.799,35.222 35.222,35.222 h 26.352 c -6.483,30.292 -10.343,63.021 -10.343,72.966 0,23.943 19.48,43.423 43.424,43.423 23.943,0 43.423,-19.48 43.423,-43.423 0,-9.947 -3.859,-42.678 -10.343,-72.966 h 26.353 c 19.421,0 35.223,-15.801 35.223,-35.222 -10e-4,-46.731 -38.02,-84.75 -84.752,-84.75 z m -9.905,215.443 c -12.411,0 -22.508,-10.097 -22.508,-22.506 0,-8.345 4.052,-42.752 10.841,-72.966 h 23.331 c 6.791,30.211 10.842,64.619 10.842,72.966 10e-4,12.41 -10.095,22.506 -22.506,22.506 z M 476.777,368.671 H 357.912 c -7.888,0 -14.305,-6.417 -14.305,-14.305 0,-35.198 28.635,-63.833 63.832,-63.833 h 19.81 c 35.198,0 63.833,28.635 63.833,63.833 0.001,7.889 -6.416,14.305 -14.305,14.305 z"
   id="path1586" />
	</g>
</g>
<g
   id="g1596"
   transform="matrix(1,0,0,1.0240942,0,-6.1681194)">
	<g
   id="g1594">
		<path
   d="m 405.033,301.382 c -26.496,1.266 -47.253,21.89 -47.253,46.953 0,5.776 4.683,10.458 10.458,10.458 5.775,0 10.458,-4.682 10.458,-10.458 0,-13.88 12.006,-25.327 27.335,-26.059 5.77,-0.276 10.222,-5.177 9.947,-10.946 -0.275,-5.769 -5.159,-10.229 -10.945,-9.948 z"
   id="path1592" />
	</g>
</g>
</svg>
