<?xml version="1.0" encoding="UTF-8" standalone="no"?>
<!-- Uploaded to: SVG Repo, www.svgrepo.com, Generator: SVG Repo Mixer Tools -->

<svg
   fill="#000000"
   height="800px"
   width="800px"
   version="1.1"
   id="Layer_1"
   viewBox="0 0 511.999 511.999"
   xml:space="preserve"
   sodipodi:docname="tree3.svg"
   inkscape:version="1.1.2 (0a00cf5339, 2022-02-04)"
   xmlns:inkscape="http://www.inkscape.org/namespaces/inkscape"
   xmlns:sodipodi="http://sodipodi.sourceforge.net/DTD/sodipodi-0.dtd"
   xmlns="http://www.w3.org/2000/svg"
   xmlns:svg="http://www.w3.org/2000/svg"><defs
   id="defs2653" /><sodipodi:namedview
   id="namedview2651"
   pagecolor="#ffffff"
   bordercolor="#666666"
   borderopacity="1.0"
   inkscape:pageshadow="2"
   inkscape:pageopacity="0.0"
   inkscape:pagecheckerboard="0"
   showgrid="false"
   inkscape:zoom="1.02625"
   inkscape:cx="327.89281"
   inkscape:cy="525.21315"
   inkscape:window-width="1920"
   inkscape:window-height="1007"
   inkscape:window-x="0"
   inkscape:window-y="0"
   inkscape:window-maximized="1"
   inkscape:current-layer="g2640" />
<g
   id="g2642">
	<g
   id="g2640">
		<path
   d="m 487.27,419.77 -62.626,-79.002 h 4.102 c 13.145,0 18.185,-7.784 19.742,-11.131 1.556,-3.347 4.263,-12.216 -4.208,-22.27 l -62.319,-73.96 h 11.662 c 13.354,0 18.248,-7.905 19.732,-11.303 1.484,-3.398 3.955,-12.361 -5.121,-22.155 L 350.07,137.181 h 10.297 c 5.51,0 10.495,-3.262 12.702,-8.313 2.205,-5.05 1.21,-10.925 -2.536,-14.966 L 271.152,6.656 C 267.23,2.427 261.708,0 255.999,0 250.291,0 244.768,2.427 240.846,6.659 l -99.381,107.246 c -3.745,4.041 -4.74,9.916 -2.536,14.966 2.205,5.05 7.191,8.312 12.702,8.312 h 10.297 l -58.161,62.765 c -9.077,9.794 -6.606,18.756 -5.122,22.155 1.484,3.398 6.378,11.303 19.732,11.303 h 11.662 l -62.319,73.96 c -8.47,10.053 -5.764,18.923 -4.208,22.27 1.556,3.347 6.597,11.131 19.742,11.131 h 4.102 L 24.73,419.769 c -3.303,4.166 -3.93,9.854 -1.617,14.639 2.313,4.787 7.161,7.827 12.477,7.827 h 161.862 v 55.905 c 0,7.653 6.205,13.859 13.859,13.859 h 89.376 c 7.654,0 13.859,-6.206 13.859,-13.859 v -55.905 h 161.862 c 5.316,0 10.164,-3.041 12.477,-7.827 2.315,-4.784 1.686,-10.473 -1.615,-14.638 z M 191.02906,132.743 c 3.745,-4.041 4.74,-9.916 2.536,-14.966 -2.205,-5.05 -7.191,-8.313 -12.702,-8.313 h -10.297 L 255.998,18.282844 341.42974,109.464 h -10.297 c -5.51,0 -10.495,3.262 -12.702,8.313 -2.205,5.05 -1.21,10.925 2.536,14.966 l 70.79569,79.34491 H 364.95801 147.03708 120.23401 Z M 293.22887,490.6832 H 218.77013 V 443.078 h 74.45874 z M 45.062312,420.91872 110.08973,340.562 H 273.941 c 7.654,0 13.859,-6.206 13.859,-13.859 0,-7.653 -6.205,-13.859 -13.859,-13.859 H 101.91573 c -0.787,0 -1.554,0.082 -2.305004,0.206 h -13.236 l 67.108004,-79.645 h 205.03315 l 67.108,79.645 h -16.852 c -5.316,0 -10.164,3.041 -12.477,7.827 -2.313,4.785 -1.685,10.474 1.617,14.639 l 69.02609,85.40222 -421.875658,-5e-4 z"
   id="path2638"
   sodipodi:nodetypes="ccscccssccscccscccscccsccsscccscsssscsccccscccsccccccccccccccsssscccccsccccc" />
	</g>
</g>
<g
   id="g2648">
	<g
   id="g2646">
		<path
   d="M329.104,323.988c-0.18-0.884-0.443-1.757-0.79-2.59c-0.346-0.832-0.776-1.635-1.275-2.384    c-0.499-0.762-1.081-1.469-1.719-2.107s-1.344-1.221-2.107-1.732c-0.748-0.499-1.566-0.93-2.398-1.276s-1.705-0.608-2.592-0.789    c-1.788-0.36-3.631-0.36-5.419,0c-0.887,0.18-1.76,0.442-2.592,0.789s-1.635,0.777-2.398,1.276    c-0.748,0.511-1.469,1.095-2.107,1.732s-1.206,1.344-1.719,2.107c-0.499,0.748-0.929,1.552-1.275,2.384    c-0.346,0.833-0.61,1.705-0.79,2.592c-0.18,0.901-0.263,1.817-0.263,2.716c0,3.645,1.469,7.22,4.047,9.798    c0.638,0.638,1.358,1.22,2.107,1.718c0.762,0.498,1.566,0.929,2.398,1.275c0.832,0.346,1.705,0.608,2.592,0.789    c0.901,0.182,1.802,0.277,2.716,0.277c3.645,0,7.206-1.482,9.798-4.061c2.578-2.592,4.061-6.153,4.061-9.798    C329.381,325.805,329.284,324.889,329.104,323.988z"
   id="path2644" />
	</g>
</g>
</svg>
