<?xml version="1.0" encoding="iso-8859-1"?>
<!-- Uploaded to: SVG Repo, www.svgrepo.com, Generator: SVG Repo Mixer Tools -->
<svg fill="#000000" height="800px" width="800px" version="1.1" id="Layer_1" xmlns="http://www.w3.org/2000/svg" xmlns:xlink="http://www.w3.org/1999/xlink" 
	 viewBox="0 0 512 512" xml:space="preserve">
<g>
	<g>
		<path d="M75.461,199.691c-4.078-1.003-8.198,1.485-9.203,5.564c-2.118,8.593-3.191,17.476-3.191,26.403
			c0,4.199,3.404,7.604,7.604,7.604c4.2,0,7.603-3.405,7.603-7.604c0-7.701,0.925-15.36,2.75-22.764
			C82.029,204.816,79.538,200.697,75.461,199.691z"/>
	</g>
</g>
<g>
	<g>
		<path d="M448.932,228.843c0-22.123-6.709-43.348-19.401-61.379c-11.554-16.412-27.245-29.089-45.57-36.875
			c0.108-2.124,0.164-4.261,0.164-6.412C384.126,55.706,328.42,0,259.948,0S135.773,55.706,135.773,124.177
			c0,1.314,0.024,2.626,0.067,3.936c-25.166,9.028-46.029,26.765-59.085,50.362c-2.033,3.675-0.702,8.302,2.973,10.334
			c1.167,0.646,2.429,0.952,3.674,0.952c2.678,0,5.273-1.416,6.66-3.925c10.622-19.201,27.242-33.882,47.306-42.014
			c5.15,31.822,22.623,60.927,48.917,80.331c3.378,2.493,8.139,1.774,10.632-1.603c2.494-3.379,1.776-8.14-1.603-10.633
			c-27.761-20.487-44.334-53.286-44.334-87.74c0.001-60.085,48.883-108.969,108.969-108.969
			c60.086,0,108.969,48.883,108.969,108.969c0,60.085-48.882,108.969-108.969,108.969c-10.054,0-20.011-1.368-29.592-4.064
			c-4.043-1.139-8.242,1.217-9.38,5.259c-1.138,4.042,1.217,8.242,5.26,9.379c10.921,3.074,22.264,4.633,33.712,4.633
			c2.177,0,4.34-0.058,6.49-0.169c-7.885,44.976-47.126,78.279-93.358,78.279c-43.085,0-80.799-29.067-91.712-70.687
			c-1.067-4.063-5.223-6.492-9.284-5.427c-4.063,1.066-6.492,5.221-5.427,9.284c9.333,35.592,35.559,63.254,68.712,75.358
			c8.711,35.216,40.643,60.415,77.261,60.415c11.972,0,23.628-2.65,34.267-7.734v96.447c0,15.374,12.508,27.881,27.881,27.881h9.562
			c15.374,0,27.881-12.507,27.881-27.881v-101.7v-0.002c8.467,3.87,17.684,5.963,27.142,5.894
			c68.943-0.507,65.248-70.305,64.977-72.733C431.324,296.184,448.932,264.533,448.932,228.843z M212.631,380.198
			c-26.604,0-50.139-16.439-59.766-40.416c6.58,1.228,13.335,1.889,20.215,1.889c28.221,0,54.197-10.699,73.817-28.436v57.091h0
			C236.644,376.787,224.842,380.198,212.631,380.198z M284.34,496.792h-9.562c-6.989,0-12.673-5.685-12.673-12.673V296.334
			c10.444-14.343,17.52-31.361,20.006-49.964c5.08-0.919,10.054-2.148,14.902-3.667v241.416h0.001
			C297.013,491.107,291.329,496.792,284.34,496.792z M339.363,373.101c-9.693,0-19.052-2.76-27.142-7.975v-33.815
			c9.69,2.833,19.732,4.277,29.968,4.277c16.984,0,33.051-3.994,47.321-11.081C388.664,351.444,366.502,373.101,339.363,373.101z
			 M342.189,320.381c-10.297,0-20.358-1.701-29.968-5.032v-78.551c35.943-16.75,62.594-50.205,69.897-90.329
			c31.172,15.167,51.608,47.284,51.608,82.374C433.725,279.318,392.662,320.381,342.189,320.381z"/>
	</g>
</g>
<g>
	<g>
		<path d="M346.106,116.573c-4.2,0-7.604,3.405-7.604,7.604c0,15.53-4.546,30.557-13.146,43.454
			c-2.33,3.494-1.386,8.215,2.108,10.545c1.297,0.865,2.762,1.278,4.212,1.278c2.457,0,4.869-1.189,6.335-3.386
			c10.271-15.405,15.7-33.348,15.7-51.891C353.71,119.977,350.307,116.573,346.106,116.573z"/>
	</g>
</g>
<g>
	<g>
		<path d="M336.521,70.12c-17.598-24.861-46.223-39.704-76.573-39.704c-4.2,0-7.604,3.405-7.604,7.604
			c0,4.199,3.404,7.604,7.604,7.604c25.424,0,49.409,12.442,64.161,33.283c1.481,2.094,3.828,3.211,6.213,3.211
			c1.519,0,3.053-0.454,4.386-1.398C338.136,78.293,338.948,73.548,336.521,70.12z"/>
	</g>
</g>
</svg>