<?xml version="1.0" encoding="iso-8859-1"?>
<!-- Uploaded to: SVG Repo, www.svgrepo.com, Generator: SVG Repo Mixer Tools -->
<svg fill="#000000" height="800px" width="800px" version="1.1" id="Layer_1" xmlns="http://www.w3.org/2000/svg" xmlns:xlink="http://www.w3.org/1999/xlink" 
	 viewBox="0 0 512 512" xml:space="preserve">
<g>
	<g>
		<path d="M186.182,46.545c-41.891,0-76.8,32.582-81.455,73.309c-33.745,10.473-58.182,40.727-58.182,77.964
			c0,1.164,0,3.491,0,4.655C25.6,211.782,11.636,232.727,11.636,256c0,32.582,25.6,58.182,58.182,58.182
			c6.982,0,11.636-4.655,11.636-11.636s-4.655-11.636-11.636-11.636c-19.782,0-34.909-15.127-34.909-34.909
			c0-12.8,6.982-23.273,16.291-30.255c8.145,23.273,26.764,40.727,50.036,48.873c-5.818,1.164-9.309,6.982-9.309,11.636
			c3.491,36.073,29.091,64,62.836,70.982c2.327,1.164,3.491,2.327,5.818,2.327c19.782,0,34.909,15.127,34.909,34.909v23.273
			c-6.982-5.818-15.127-9.309-24.436-10.473c-4.655-20.945-23.273-36.073-45.382-36.073c-25.6,0-46.545,20.945-46.545,46.545
			s20.945,46.545,46.545,46.545c20.945,0,38.4-13.964,44.218-33.745c15.127,4.655,25.6,17.455,25.6,33.745V499.2
			c0,6.982,4.655,11.636,11.636,11.636c6.982,0,11.636-4.655,11.636-11.636V394.473c0-16.291-5.818-30.255-16.291-40.727
			C235.055,343.273,256,314.182,256,279.273c0-6.982-4.655-11.636-11.636-11.636s-11.636,4.655-11.636,11.636
			c0,32.582-25.6,58.182-58.182,58.182c-30.255,0-54.691-22.109-58.182-52.364c0-2.327-1.164-5.818-3.491-6.982
			c4.655,1.164,10.473,1.164,15.127,1.164c45.382,0,81.455-36.073,81.455-81.455c0-6.982-4.655-11.636-11.636-11.636
			s-11.636,4.655-11.636,11.636C186.182,230.4,160.582,256,128,256c-32.582,0-58.182-25.6-58.182-58.182
			c0-32.582,25.6-58.182,58.182-58.182c6.982,0,11.636-4.655,11.636-11.636c0-5.818-4.655-10.473-10.473-11.636
			c5.818-26.764,29.091-46.545,57.018-46.545c32.582,0,58.182,25.6,58.182,58.182c0,6.982,4.655,11.636,11.636,11.636
			c6.982,0,11.636-4.655,11.636-11.636C267.636,82.618,231.564,46.545,186.182,46.545z M128,442.182
			c-12.8,0-23.273-10.473-23.273-23.273S115.2,395.636,128,395.636s23.273,10.473,23.273,23.273S140.8,442.182,128,442.182z"/>
	</g>
</g>
<g>
	<g>
		<path d="M360.727,209.455c-32.582,0-58.182,25.6-58.182,58.182c0,6.982,4.655,11.636,11.636,11.636s11.636-4.655,11.636-11.636
			c0-19.782,15.127-34.909,34.909-34.909c6.982,0,11.636-4.655,11.636-11.636C372.364,214.109,367.709,209.455,360.727,209.455z"/>
	</g>
</g>
<g>
	<g>
		<path d="M474.764,195.491c2.327-6.982,2.327-13.964,2.327-20.945c0-34.909-22.109-65.164-54.691-76.8
			c-5.818-2.327-12.8,1.164-15.127,6.982c-2.327,5.818,1.164,12.8,6.982,15.127c23.273,8.145,38.4,30.255,38.4,54.691
			c0,6.982-1.164,13.964-4.655,20.945c-6.982,22.109-27.927,37.236-52.364,37.236c-6.982,0-11.636,4.655-11.636,11.636
			S388.655,256,395.636,256c27.927,0,54.691-15.127,68.655-38.4c8.145,6.982,12.8,16.291,12.8,26.764
			c0,19.782-15.127,34.909-34.909,34.909c-6.982,0-13.964-2.327-19.782-5.818c-3.491-2.327-6.982-2.327-10.473-1.164
			c-3.491,1.164-5.818,3.491-6.982,6.982c-4.655,13.964-18.618,23.273-31.418,23.273c0,0-1.164,0-2.327,0
			c-5.818,0-10.473,3.491-11.636,9.309c-4.655,22.109-23.273,37.236-45.382,37.236c-3.491,0-5.818,0-9.309-1.164
			c5.818-10.473,9.309-22.109,9.309-33.745c0-6.982-4.655-11.636-11.636-11.636s-11.636,4.655-11.636,11.636
			c0,11.636-4.655,22.109-11.636,31.418c-9.309,9.309-22.109,15.127-34.909,15.127c-6.982,0-11.636,4.655-11.636,11.636
			S237.382,384,244.364,384c16.291,0,32.582-5.818,45.382-16.291c8.145,3.491,16.291,4.655,24.436,4.655
			c30.255,0,57.018-19.782,66.327-46.545c5.818-1.164,10.473-2.327,15.127-4.655v39.564c0,19.782-15.127,34.909-34.909,34.909
			c-12.8,0-25.6,4.655-34.909,11.636c0-6.982-4.655-11.636-11.636-11.636s-11.636,4.655-11.636,11.636v93.091
			c0,6.982,4.655,11.636,11.636,11.636s11.636-4.655,11.636-11.636v-46.545c0-19.782,15.127-34.909,34.909-34.909
			c32.582,0,58.182-25.6,58.182-58.182v-58.182c1.164-1.164,1.164-2.327,2.327-3.491c6.982,2.327,13.964,3.491,20.945,3.491
			c32.582,0,58.182-25.6,58.182-58.182C500.364,224.582,489.891,205.964,474.764,195.491z"/>
	</g>
</g>
<g>
	<g>
		<path d="M302.545,24.436c-6.982,0-13.964,1.164-20.945,2.327C271.127,10.473,252.509,0,232.727,0
			c-10.473,0-19.782,2.327-29.091,8.145c-5.818,2.327-6.982,10.473-4.655,15.127c3.491,5.818,10.473,8.146,16.291,4.655
			c5.818-3.491,11.636-4.655,17.455-4.655c13.964,0,26.764,8.146,32.582,20.945c1.164,2.327,3.491,4.655,5.818,5.818
			s5.818,1.164,9.309,0c6.982-2.327,13.964-3.491,22.109-3.491c32.582,0,58.182,25.6,58.182,58.182
			c0,32.582-25.6,58.182-58.182,58.182c-6.982,0-11.636,4.655-11.636,11.636s4.655,11.636,11.636,11.636
			c43.055,0,79.127-34.909,81.455-76.8c0-1.164,0-2.327,0-3.491C384,60.509,347.927,24.436,302.545,24.436z"/>
	</g>
</g>
</svg>